<svg xmlns="http://www.w3.org/2000/svg" viewBox="0 0 100 100">
  <defs>
    <linearGradient id="g" x1="0%" y1="0%" x2="100%" y2="100%">
      <stop offset="0%" style="stop-color:#F97316"/>
      <stop offset="100%" style="stop-color:#FDBA74"/>
    </linearGradient>
  </defs>
  <rect width="100" height="100" rx="22" fill="#0D1117"/>
  <path d="M50,8 L54.5,18.5 C57.5,19.2 60.3,20.4 62.9,21.9 L73.8,17.5 L82.5,26.2 L78.1,37.1 C79.6,39.7 80.8,42.5 81.5,45.5 L92,50 L81.5,54.5 C80.8,57.5 79.6,60.3 78.1,62.9 L82.5,73.8 L73.8,82.5 L62.9,78.1 C60.3,79.6 57.5,80.8 54.5,81.5 L50,92 L45.5,81.5 C42.5,80.8 39.7,79.6 37.1,78.1 L26.2,82.5 L17.5,73.8 L21.9,62.9 C20.4,60.3 19.2,57.5 18.5,54.5 L8,50 L18.5,45.5 C19.2,42.5 20.4,39.7 21.9,37.1 L17.5,26.2 L26.2,17.5 L37.1,21.9 C39.7,20.4 42.5,19.2 45.5,18.5 Z" fill="url(#g)"/>
  <circle cx="50" cy="50" r="18" fill="#0D1117"/>
  <circle cx="50" cy="50" r="12" fill="url(#g)"/>
  <path d="M43 50 L49 56 L59 43" stroke="#fff" stroke-width="4" stroke-linecap="round" stroke-linejoin="round" fill="none"/>
</svg>
